<svg width="144" height="62" viewBox="0 0 144 62" fill="none" xmlns="http://www.w3.org/2000/svg">
<path d="M2.304 52V18.4H19.824V24.16H8.88V32.56H18.384V38.128H8.88V52H2.304ZM22.3609 52V27.472H28.6969V52H22.3609ZM22.3609 18.4H28.6969V24.88H22.3609V18.4ZM39.15 18.4V52H32.814V18.4H39.15ZM53.9231 27.472H57.3311L58.5311 29.152C59.2031 28.544 59.8431 28.112 60.4511 27.856C61.0911 27.6 62.0351 27.472 63.2831 27.472H68.6111C70.0191 29.264 70.9791 31.056 71.4911 32.848C72.0031 34.64 72.2591 36.88 72.2591 39.568V52H65.8751V39.088C65.8751 36.144 65.4271 33.952 64.5311 32.512H59.9231C60.6271 33.888 60.9791 35.76 60.9791 38.128V52H54.5951V39.088C54.5951 36.048 54.1791 33.856 53.3471 32.512H49.6511V52H43.2671V27.472H48.2591L49.1231 29.2C49.8271 28.56 50.4831 28.112 51.0911 27.856C51.7311 27.6 52.6751 27.472 53.9231 27.472ZM76.4134 52V18.4H93.9334V24.16H82.9894V32.56H92.4934V38.128H82.9894V52H76.4134ZM102.806 18.4V52H96.4703V18.4H102.806ZM106.923 52V27.472H113.259V52H106.923ZM106.923 18.4H113.259V24.88H106.923V18.4ZM125.489 36.592L128.465 27.472H135.137L130.577 39.424L135.329 52H128.753L125.441 42.496H125.249L122.081 52H115.505L120.257 39.424L115.697 27.472H122.273L125.297 36.592H125.489Z" fill="white"/>
<path d="M110 5L113.606 18.3938L127 22L113.606 25.6062L110 39L106.394 25.6062L93 22L106.394 18.3938L110 5Z" fill="#317B93"/>
</svg>
